<svg xmlns="http://www.w3.org/2000/svg" xmlns:xlink="http://www.w3.org/1999/xlink" width="1080" height="1920" viewBox="0 0 1080 1920">
  <defs>
    <clipPath id="clip-Custom_Size_1">
      <rect width="1080" height="1920"/>
    </clipPath>
  </defs>
  <g id="Custom_Size_1" data-name="Custom Size – 1" clip-path="url(#clip-Custom_Size_1)">
    <rect width="1080" height="1920" fill="#7a00f3"/>
    <path id="Path_1" data-name="Path 1" d="M-323.542,1558.672s11.808-7.085,139.336-44.871,129.889-68.487,229.077-56.679,340.074,113.358,557.343,16.531,706.126-207.823,866.716-73.21,153.506,229.078,23.616,380.221-604.576,332.989-720.3,297.565-1199.7-63.764-1138.3-89.742S-323.542,1558.672-323.542,1558.672Z" fill="#fff" stroke="#707070" stroke-width="1"/>
    <g id="Rectangle_1" data-name="Rectangle 1" transform="translate(271 744)" fill="#fff" stroke="#707070" stroke-width="1">
      <rect width="538" height="154" rx="77" stroke="none"/>
      <rect x="0.5" y="0.5" width="537" height="153" rx="76.5" fill="none"/>
    </g>
    <path id="Path_2" data-name="Path 2" d="M-185.15,0h8.95V-10.35h5.25c8.55,0,12.9-6.25,12.9-12.55,0-6.25-4.3-12.5-12.95-12.5h-14.15Zm8.95-18.3v-8.75h5.2c5.4-.05,5.4,8.8,0,8.75Zm31-8.7h15.6v-8.4h-24.65V0h24.65V-8.45h-15.6v-5.3h14.35V-21.5H-145.2ZM-106,0h11.15l-9.65-12.15c4.3-1.35,6.95-5.05,6.95-11.6-.2-8.3-5.85-11.65-13.15-11.65h-14.15V0h9.05V-11.25h1.6Zm-9.8-18.95v-8.1h5.25a4.054,4.054,0,1,1,0,8.1Zm32.3-7.95h15.6v-8.5H-92.55V0h9.05V-12.2h13.65v-8.35H-83.5Zm28.8-.1h15.6v-8.4H-63.75V0H-39.1V-8.45H-54.7v-5.3h14.35V-21.5H-54.7Zm38.15,15.95c-1.95,4.9-9.95,3.7-9.95-.55V-23.8c0-4.4,7.9-5.4,10.3-1l7.3-2.95A13.134,13.134,0,0,0-21.35-35.9c-7.1,0-14.1,4.1-14.1,12.1v12.2c0,8.05,7,12.1,13.95,12.1A14.241,14.241,0,0,0-8.75-7.45Zm36.8-15.9v-8.5H-7.6v8.5H1.8V0h9.05V-26.95Zm37-1.4C54.8-34,49.55-35.9,44.95-35.9c-7,0-14,4-14,12v12.15c0,8.15,7,12.25,14,12.25,7.1,0,13.9-4.1,13.9-12.25v-8.8H44.6v7.5h5.65v1.3c0,5.5-10.35,5.55-10.35,0V-23.9c0-4.65,7.9-5.75,9.85-1ZM79.7-35.4H71.55L59.2,0h9.6L71-7.1h9.45L82.75,0h9.6ZM73-15.05,75.6-25.4h.25L78.3-15.05ZM94.7,0h8.95V-10.2l-.6-7.15.25-.05,4.75,12.15h6.15l4.65-12.15.3.05-.55,7.15L118.55,0h9V-35.4H118.6l-7.5,17.3-7.45-17.3H94.7Zm47.5-27h15.6v-8.4H133.15V0H157.8V-8.45H142.2v-5.3h14.35V-21.5H142.2ZM160.85-5.9A15.512,15.512,0,0,0,172.9.5c6.5,0,13.7-3.75,14-10.6.4-8.7-5.9-10.9-12.2-12.05-2.75-.6-4.6-1.6-4.7-3.3.15-4.1,6.5-4.25,10.2-.3l5.85-4.5a14.544,14.544,0,0,0-12.1-5.65c-6.5,0-12.8,3.65-12.8,10.6,0,6.75,5.2,10.35,10.9,11.25,2.9.4,6.15,1.55,6.05,3.55-.25,3.8-8.05,3.6-11.6-.7Z" transform="translate(540 839)"/>
  </g>
</svg>
